<svg width="42" height="42" viewBox="0 0 42 42" fill="none" xmlns="http://www.w3.org/2000/svg">
<path d="M35.7321 5.38867H6.27302C5.56456 5.38867 4.99219 5.96104 4.99219 6.6695V36.1286C4.99219 36.8371 5.56456 37.4095 6.27302 37.4095H35.7321C36.4406 37.4095 37.013 36.8371 37.013 36.1286V6.6695C37.013 5.96104 36.4406 5.38867 35.7321 5.38867ZM32.0337 14.7347H29.4761C27.4708 14.7347 27.0825 15.6874 27.0825 17.0883V20.1743H31.8696L31.2452 25.0054H27.0825V37.4095H22.0913V25.0094H17.9166V20.1743H22.0913V16.612C22.0913 12.4773 24.6169 10.2238 28.3073 10.2238C30.0765 10.2238 31.5934 10.3559 32.0377 10.4159V14.7347H32.0337Z" fill="#2091F9"/>
</svg>
