<svg width="42" height="42" viewBox="0 0 42 42" fill="none" xmlns="http://www.w3.org/2000/svg">
<path d="M35.7321 5.375H6.27302C5.56456 5.375 4.99219 5.94737 4.99219 6.65583V36.1149C4.99219 36.8234 5.56456 37.3958 6.27302 37.3958H35.7321C36.4406 37.3958 37.013 36.8234 37.013 36.1149V6.65583C37.013 5.94737 36.4406 5.375 35.7321 5.375ZM32.0337 14.7211H29.4761C27.4708 14.7211 27.0825 15.6737 27.0825 17.0746V20.1606H31.8696L31.2452 24.9917H27.0825V37.3958H22.0913V24.9957H17.9166V20.1606H22.0913V16.5983C22.0913 12.4636 24.6169 10.2101 28.3073 10.2101C30.0765 10.2101 31.5934 10.3422 32.0377 10.4023V14.7211H32.0337Z" fill="white"/>
</svg>
