<svg width="194" height="64" viewBox="0 0 194 64" fill="none" xmlns="http://www.w3.org/2000/svg">
<g clip-path="url(#clip0_66_4683)">
<path d="M187.489 39.2242L192.844 42.7751C191.106 45.3214 186.95 49.6901 179.764 49.6901C170.841 49.6901 164.195 42.822 164.195 34.0849C164.195 24.7875 170.911 18.48 179.012 18.48C187.161 18.48 191.153 24.9274 192.444 28.4081L193.149 30.1837L172.156 38.8271C173.753 41.9576 176.242 43.5461 179.764 43.5461C183.286 43.5461 185.728 41.8174 187.489 39.2242ZM171.029 33.5947L185.047 27.801C184.272 25.8622 181.972 24.4841 179.224 24.4841C175.725 24.4841 170.864 27.5677 171.029 33.5947Z" fill="#FF302F"/>
<path d="M154.074 2.57118H160.837V48.2649H154.074V2.5708V2.57118Z" fill="#20B15A"/>
<path d="M143.413 19.6944H149.941V47.447C149.941 58.9637 143.107 63.7059 135.029 63.7059C127.421 63.7059 122.842 58.6134 121.128 54.4787L127.116 52.0022C128.196 54.5484 130.802 57.5623 135.029 57.5623C140.219 57.5623 143.413 54.3617 143.413 48.3815V46.139H143.178C141.628 48.0077 138.669 49.6895 134.912 49.6895C127.069 49.6895 119.883 42.8915 119.883 34.1315C119.883 25.3243 127.069 18.4565 134.912 18.4565C138.646 18.4565 141.628 20.1152 143.178 21.9373H143.413V19.6948V19.6944ZM143.882 34.1315C143.882 28.6183 140.195 24.6002 135.499 24.6002C130.755 24.6002 126.763 28.6183 126.763 34.1315C126.763 39.5743 130.755 43.5223 135.499 43.5223C140.196 43.5459 143.882 39.5743 143.882 34.1315H143.882Z" fill="#3686F7"/>
<path d="M82.759 34.0148C82.759 43.0088 75.7145 49.6197 67.0729 49.6197C58.4316 49.6197 51.3867 42.9856 51.3867 34.0148C51.3867 24.9743 58.4316 18.3867 67.0729 18.3867C75.7145 18.3867 82.759 24.9743 82.759 34.0148ZM75.9022 34.0148C75.9022 28.4086 71.8161 24.5536 67.0729 24.5536C62.3297 24.5536 58.2435 28.4086 58.2435 34.0148C58.2435 39.5746 62.3297 43.4761 67.0729 43.4761C71.8164 43.4761 75.9022 39.5746 75.9022 34.0148Z" fill="#FF302F"/>
<path d="M117.017 34.0849C117.017 43.0789 109.972 49.6897 101.331 49.6897C92.689 49.6897 85.6445 43.0785 85.6445 34.0849C85.6445 25.0444 92.689 18.48 101.331 18.48C109.972 18.48 117.017 25.0211 117.017 34.0849ZM110.136 34.0849C110.136 28.4786 106.051 24.6236 101.307 24.6236C96.5637 24.6236 92.4776 28.4786 92.4776 34.0849C92.4776 39.6446 96.5637 43.5461 101.307 43.5461C106.074 43.5461 110.136 39.6214 110.136 34.0849Z" fill="#FFBA40"/>
<path d="M25.6021 42.8451C15.7629 42.8451 8.06097 34.9491 8.06097 25.1609C8.06097 15.373 15.7629 7.47697 25.6021 7.47697C30.9092 7.47697 34.7836 9.55597 37.6484 12.2192L42.3686 7.52385C38.3767 3.7161 33.0462 0.818848 25.6021 0.818848C12.1234 0.819223 0.78125 11.7523 0.78125 25.1609C0.78125 38.5701 12.1234 49.5029 25.6021 49.5029C32.8818 49.5029 38.3767 47.1201 42.6739 42.6816C47.0884 38.2896 48.4504 32.1224 48.4504 27.1232C48.4504 25.558 48.2627 23.9462 48.0512 22.7549H25.6021V29.2491H41.5936C41.1239 33.3141 39.8325 36.094 37.9304 37.9859C35.6291 40.2989 31.9896 42.8451 25.6021 42.8451Z" fill="#3686F7"/>
</g>
<defs>
<clipPath id="clip0_66_4683">
<rect width="193" height="63" fill="white" transform="translate(0.5 0.722168)"/>
</clipPath>
</defs>
</svg>
