<svg width="128" height="51" viewBox="0 0 128 51" fill="none" xmlns="http://www.w3.org/2000/svg">
<g clip-path="url(#clip0_67_5655)">
<path d="M0.660156 0.0737305V3.54057H25.318V0.0737305H0.660156ZM28.8115 0.0737305V3.54057H63.95C63.95 3.54057 60.3607 0.0737305 55.607 0.0737305H28.8115ZM70.8431 0.0737305V3.54057H92.1013L90.8395 0.0737305H70.8431ZM107.342 0.0737305L106.081 3.54057H127.146V0.0737305H107.342ZM0.660156 6.8159V10.2827H25.318V6.8159H0.660156ZM28.8115 6.82085V10.2827H68.0274C68.0274 10.2827 67.5695 7.61457 66.7706 6.82085H28.8115ZM70.8431 6.82085V10.2827H94.432L93.2642 6.82085H70.8431ZM104.819 6.82085L103.651 10.2827H127.146V6.82085H104.819ZM7.74624 13.5581V17.0294H18.4249V13.5581H7.74624ZM35.8976 13.5581V17.0294H46.5762V13.5581H35.8976ZM56.9629 13.5581V17.0294H67.6415C67.6415 17.0294 68.3194 15.196 68.3194 13.5578H56.9629V13.5581ZM77.9292 13.5581V17.0294H96.8617L95.5998 13.5578H77.9292V13.5581ZM102.493 13.5581L101.226 17.0296H120.253V13.5581H102.493ZM7.74624 20.3052V23.7715H18.4249V20.3052H7.74624ZM35.8976 20.3052V23.7715H63.1731C63.1731 23.7715 65.4548 21.9926 66.1817 20.3047H35.8976V20.3052ZM77.9292 20.3052V23.7715H88.6078V21.8417L89.2857 23.7715H108.847L109.574 21.8417V23.7715H120.253V20.3052H100.207L99.1429 23.2418L98.074 20.3052H77.9292ZM7.74624 27.0469V30.5137H18.4249V27.0469H7.74624ZM35.8976 27.0469V30.5137H66.1817C65.4545 28.8313 63.1731 27.0469 63.1731 27.0469H35.8976ZM77.9292 27.0469V30.5137H88.6078V27.0469H77.9292ZM90.5475 27.0469L91.8391 30.5137H106.506L107.733 27.0469H90.5475ZM109.574 27.0469V30.5137H120.253V27.0469H109.574ZM7.74624 33.789V37.2559H18.4249V33.789H7.74624ZM35.8976 33.789V37.2559H46.5762V33.789H35.8976ZM56.9629 33.789V37.2559H68.3194C68.3194 35.6197 67.6415 33.789 67.6415 33.789H56.9629ZM77.9292 33.789V37.2559H88.6078V33.789H77.9292ZM92.9722 33.789L94.2242 37.2559H104.057L105.318 33.789H92.9722ZM109.574 33.789V37.2559H120.253V33.789H109.574ZM0.853143 40.5315V44.003H25.5109V40.5312H0.853143V40.5315ZM28.8115 40.5315V44.003H66.7706C67.5695 43.208 68.0274 40.5312 68.0274 40.5312H28.8115V40.5315ZM71.0361 40.5315V44.003H88.6078V40.5312H71.0361V40.5315ZM95.4019 40.5315L96.6885 44.003H101.691L102.899 40.5312H95.4019V40.5315ZM109.574 40.5315V44.003H127.339V40.5312H109.574V40.5315ZM0.853143 47.2783V50.7452H25.5109V47.2783H0.853143ZM28.8115 47.2783V50.74H55.607C60.3607 50.74 63.95 47.2781 63.95 47.2781H28.8115V47.2783ZM71.0361 47.2783V50.7452H88.6078V47.2783H71.0361ZM97.8415 47.2783L99.0786 50.735L99.2913 50.74L100.548 47.2781H97.8415V47.2783ZM109.574 47.2783V50.7452H127.339V47.2783H109.574Z" fill="#1F70C1"/>
</g>
<defs>
<clipPath id="clip0_67_5655">
<rect width="126.679" height="50.7209" fill="white" transform="translate(0.660156 0.0737305)"/>
</clipPath>
</defs>
</svg>
