<svg width="42" height="42" viewBox="0 0 42 42" fill="none" xmlns="http://www.w3.org/2000/svg">
<path d="M35.7165 5.38867H6.25739C5.54893 5.38867 4.97656 5.96104 4.97656 6.6695V36.1286C4.97656 36.8371 5.54893 37.4095 6.25739 37.4095H35.7165C36.425 37.4095 36.9973 36.8371 36.9973 36.1286V6.6695C36.9973 5.96104 36.425 5.38867 35.7165 5.38867ZM14.4747 32.6744H9.72364V17.3925H14.4747V32.6744ZM12.1012 15.3031C11.5565 15.3031 11.0241 15.1416 10.5713 14.839C10.1184 14.5364 9.76545 14.1063 9.55702 13.6031C9.34859 13.1 9.29406 12.5463 9.40031 12.0121C9.50657 11.4779 9.76884 10.9872 10.154 10.6021C10.5391 10.217 11.0298 9.9547 11.5639 9.84844C12.0981 9.74219 12.6518 9.79672 13.155 10.0052C13.6582 10.2136 14.0883 10.5665 14.3909 11.0194C14.6935 11.4723 14.855 12.0047 14.855 12.5493C14.851 14.0703 13.6182 15.3031 12.1012 15.3031ZM32.2623 32.6744H27.5152V25.2416C27.5152 23.4684 27.4832 21.1909 25.0456 21.1909C22.576 21.1909 22.1957 23.1202 22.1957 25.1135V32.6744H17.4527V17.3925H22.0076V19.4818H22.0717C22.7041 18.281 24.2531 17.0122 26.5666 17.0122C31.3777 17.0122 32.2623 20.1783 32.2623 24.2929V32.6744Z" fill="#2091F9"/>
</svg>
