<svg width="42" height="42" viewBox="0 0 42 42" fill="none" xmlns="http://www.w3.org/2000/svg">
<path d="M35.7165 5.375H6.25739C5.54893 5.375 4.97656 5.94737 4.97656 6.65583V36.1149C4.97656 36.8234 5.54893 37.3958 6.25739 37.3958H35.7165C36.425 37.3958 36.9973 36.8234 36.9973 36.1149V6.65583C36.9973 5.94737 36.425 5.375 35.7165 5.375ZM14.4747 32.6607H9.72364V17.3788H14.4747V32.6607ZM12.1012 15.2894C11.5565 15.2894 11.0241 15.1279 10.5713 14.8253C10.1184 14.5227 9.76545 14.0927 9.55702 13.5895C9.34859 13.0863 9.29406 12.5326 9.40031 11.9984C9.50657 11.4642 9.76884 10.9735 10.154 10.5884C10.5391 10.2033 11.0298 9.94103 11.5639 9.83477C12.0981 9.72852 12.6518 9.78305 13.155 9.99148C13.6582 10.1999 14.0883 10.5529 14.3909 11.0057C14.6935 11.4586 14.855 11.991 14.855 12.5356C14.851 14.0566 13.6182 15.2894 12.1012 15.2894ZM32.2623 32.6607H27.5152V25.2279C27.5152 23.4547 27.4832 21.1773 25.0456 21.1773C22.576 21.1773 22.1957 23.1065 22.1957 25.0998V32.6607H17.4527V17.3788H22.0076V19.4681H22.0717C22.7041 18.2674 24.2531 16.9985 26.5666 16.9985C31.3777 16.9985 32.2623 20.1646 32.2623 24.2793V32.6607Z" fill="white"/>
</svg>
