<svg width="46" height="47" viewBox="0 0 46 47" fill="none" xmlns="http://www.w3.org/2000/svg">
<path d="M22.9987 27.7259C27.2269 27.7259 30.6654 24.2874 30.6654 20.0592C30.6654 15.8311 27.2269 12.3926 22.9987 12.3926C18.7705 12.3926 15.332 15.8311 15.332 20.0592C15.332 24.2874 18.7705 27.7259 22.9987 27.7259ZM22.9987 16.2259C25.1128 16.2259 26.832 17.9452 26.832 20.0592C26.832 22.1733 25.1128 23.8926 22.9987 23.8926C20.8846 23.8926 19.1654 22.1733 19.1654 20.0592C19.1654 17.9452 20.8846 16.2259 22.9987 16.2259Z" fill="white"/>
<path d="M21.8898 42.7024C22.2142 42.9341 22.6029 43.0586 23.0015 43.0586C23.4001 43.0586 23.7887 42.9341 24.1131 42.7024C24.6958 42.2903 38.3904 32.4023 38.3348 20.0589C38.3348 11.6045 31.4559 4.72559 23.0015 4.72559C14.5471 4.72559 7.66814 11.6045 7.66814 20.0493C7.61255 32.4023 21.3071 42.2903 21.8898 42.7024ZM23.0015 8.55892C29.3437 8.55892 34.5015 13.7167 34.5015 20.0685C34.5417 28.5747 26.0911 36.2126 23.0015 38.7177C19.9137 36.2107 11.4612 28.5708 11.5015 20.0589C11.5015 13.7167 16.6592 8.55892 23.0015 8.55892Z" fill="white"/>
</svg>
