<svg width="27" height="33" viewBox="0 0 27 33" fill="none" xmlns="http://www.w3.org/2000/svg">
<g clip-path="url(#clip0_67_7862)">
<path d="M13.5013 20.0592C16.9941 20.0592 19.8346 17.2187 19.8346 13.7259C19.8346 10.2331 16.9941 7.39258 13.5013 7.39258C10.0085 7.39258 7.16797 10.2331 7.16797 13.7259C7.16797 17.2187 10.0085 20.0592 13.5013 20.0592ZM13.5013 10.5592C15.2477 10.5592 16.668 11.9795 16.668 13.7259C16.668 15.4723 15.2477 16.8926 13.5013 16.8926C11.7549 16.8926 10.3346 15.4723 10.3346 13.7259C10.3346 11.9795 11.7549 10.5592 13.5013 10.5592Z" fill="#2091F9"/>
<path d="M12.2485 32.4317C12.5164 32.6231 12.8375 32.726 13.1668 32.726C13.4961 32.726 13.8172 32.6231 14.0851 32.4317C14.5665 32.0913 25.8794 23.9229 25.8335 13.7262C25.8335 6.74215 20.1509 1.05957 13.1668 1.05957C6.18272 1.05957 0.500139 6.74215 0.500139 13.7183C0.454223 23.9229 11.7671 32.0913 12.2485 32.4317ZM13.1668 4.22624C18.4061 4.22624 22.6668 8.48699 22.6668 13.7342C22.7001 20.761 15.7191 27.0706 13.1668 29.14C10.6161 27.069 3.63356 20.7578 3.66681 13.7262C3.66681 8.48699 7.92756 4.22624 13.1668 4.22624Z" fill="#2091F9"/>
</g>
<defs>
<clipPath id="clip0_67_7862">
<rect width="26" height="32" fill="white" transform="translate(0.5 0.892578)"/>
</clipPath>
</defs>
</svg>
