<svg width="28" height="23" viewBox="0 0 28 23" fill="none" xmlns="http://www.w3.org/2000/svg">
<g clip-path="url(#clip0_67_7874)">
<path d="M25.8125 1.08008H1.4375C0.918945 1.08008 0.5 1.49902 0.5 2.01758V20.7676C0.5 21.2861 0.918945 21.7051 1.4375 21.7051H25.8125C26.3311 21.7051 26.75 21.2861 26.75 20.7676V2.01758C26.75 1.49902 26.3311 1.08008 25.8125 1.08008ZM24.6406 4.32617V19.5957H2.60938V4.32617L1.80078 3.69629L2.95215 2.2168L4.20605 3.19238H23.0469L24.3008 2.2168L25.4521 3.69629L24.6406 4.32617ZM23.0469 3.18945L13.625 10.5137L4.20312 3.18945L2.94922 2.21387L1.79785 3.69336L2.60645 4.32324L12.6143 12.1045C12.9021 12.3281 13.2561 12.4495 13.6206 12.4495C13.9851 12.4495 14.3391 12.3281 14.627 12.1045L24.6406 4.32617L25.4492 3.69629L24.2979 2.2168L23.0469 3.18945Z" fill="#2091F9"/>
</g>
<defs>
<clipPath id="clip0_67_7874">
<rect width="27" height="22" fill="white" transform="translate(0.5 0.392578)"/>
</clipPath>
</defs>
</svg>
