<svg width="390" height="296" viewBox="0 0 390 296" fill="none" xmlns="http://www.w3.org/2000/svg">
<g clip-path="url(#clip0_66_3943)">
<path d="M209.775 295.477C288.083 295.477 351.565 277.331 351.565 254.946C351.565 232.562 288.083 214.416 209.775 214.416C131.466 214.416 67.9844 232.562 67.9844 254.946C67.9844 277.331 131.466 295.477 209.775 295.477Z" fill="#F5F5F5"/>
<path d="M344.679 97.2795C344.679 97.2795 319.561 122.408 333.741 159.696C347.92 196.984 309.434 258.996 309.434 258.996C309.434 258.996 309.839 258.935 310.612 258.801C362.2 249.69 387.832 190.661 359.145 146.812C348.495 130.51 339.724 111.384 344.679 97.2795Z" fill="#2091F9"/>
<path d="M344.679 97.2795C344.679 97.2795 330.5 128.083 344.679 153.211C358.858 178.34 347.109 248.863 309.434 258.996" stroke="#535461" stroke-width="2" stroke-miterlimit="10"/>
<path d="M389.41 198.917C389.41 198.917 360.748 194.35 358.135 220.05C355.522 245.75 303.039 249.309 303.039 249.309C303.039 249.309 303.379 249.544 304.023 249.965C347.371 278.434 388.81 268.099 382.567 230.296C380.23 216.244 380.416 202.127 389.41 198.917Z" fill="#2091F9"/>
<path opacity="0.2" d="M389.41 198.917C389.41 198.917 360.748 194.35 358.135 220.05C355.522 245.75 303.039 249.309 303.039 249.309C303.039 249.309 303.379 249.544 304.023 249.965C347.371 278.434 388.81 268.099 382.567 230.296C380.23 216.244 380.416 202.127 389.41 198.917Z" fill="#F5F5F5"/>
<path d="M389.41 198.917C389.41 198.917 367.161 203.805 368.988 224.046C370.815 244.287 335.935 268.54 303.023 249.3" stroke="#535461" stroke-width="2" stroke-miterlimit="10"/>
<path opacity="0.2" d="M61.835 0.509217C58.5697 0.395732 55.2235 0.509216 52.1608 1.65217C43.8276 4.76085 39.8777 14.9299 41.1619 23.7371C42.4462 32.5444 47.7289 40.1925 53.2101 47.2002C58.6913 54.2079 64.6303 61.1264 67.6362 69.4918C69.1352 73.6705 69.836 78.3518 68.3128 82.5223C65.9631 88.9545 58.8776 92.5495 52.0757 93.2953C45.2739 94.0411 38.4436 92.586 31.6174 92.0794C28.7532 91.8767 25.8081 91.8524 23.11 92.7927C20.1486 93.8181 17.6814 95.9095 15.4128 98.09C6.56102 106.642 -0.524445 118.315 0.622032 130.571C1.9184 144.465 13.4804 155.449 26.1443 161.338C30.3373 163.291 34.7733 164.872 38.4639 167.66C48.1866 175.013 50.3702 188.789 49.402 200.952C48.4338 213.115 45.1361 225.29 46.9713 237.348C49.1306 251.372 58.6872 264.037 71.578 269.955C83.063 275.224 97.4365 274.895 107.633 267.442C112.604 263.794 116.364 258.764 119.633 253.548C124.567 245.679 128.571 237.262 131.563 228.468C132.985 224.289 134.322 219.795 137.64 216.888C139.666 215.101 142.291 214.1 144.888 213.322C152.715 210.979 160.959 210.335 168.858 208.251C176.758 206.168 184.707 202.285 189.001 195.343C195.077 185.49 192.242 172.889 192.27 161.297C192.319 134.888 208.114 111.242 213.944 85.5054C215.848 77.0913 216.557 67.7815 212.303 60.2793C209.41 55.1603 204.537 51.5126 199.412 48.6755C188.15 42.4176 175.348 39.6331 162.753 36.9217C145.248 33.1604 123.992 32.6741 110.425 20.5069C97.4041 8.83414 79.5912 0.509217 61.835 0.509217Z" fill="#2091F9"/>
<g opacity="0.5">
<path opacity="0.5" d="M125.333 102.731C125.332 96.3651 124.336 90.0388 122.38 83.9814L117.518 68.9001C117.518 68.6488 117.518 68.4015 117.518 68.1543C117.668 58.4878 110.137 53.6647 107.237 54.1875C104.267 54.7225 96.0271 50.5885 96.0271 50.5885V50.7019C95.4621 50.0513 94.9526 49.3544 94.5038 48.6187C95.9275 47.5813 97.1296 46.2697 98.0393 44.7609C98.9491 43.2521 99.5482 41.5765 99.8015 39.8328C100.055 38.089 99.957 36.3122 99.5141 34.6067C99.0711 32.9013 98.2919 31.3016 97.2222 29.9018C98.1128 29.2323 98.792 28.3206 99.1789 27.2754C99.8514 25.3826 99.3369 23.2224 98.2431 21.5363C97.778 20.8325 97.2343 20.1839 96.6226 19.603C95.696 18.6847 94.6841 17.8568 93.6004 17.1307C90.8983 15.2582 87.9288 13.6491 84.6879 13.0776C84.1271 12.9452 83.5432 12.9452 82.9824 13.0776C82.4956 13.2741 82.0323 13.5243 81.6009 13.8234C79.3809 15.0879 76.618 14.5408 74.0577 14.407C71.4973 14.2733 68.386 14.9907 67.5758 17.3941C67.3246 18.1358 67.3408 18.9383 67.1707 19.7003C66.7656 21.5647 65.3274 23.0116 64.2174 24.5639C63.1074 26.1162 62.2769 28.2117 63.2006 29.8977C63.5165 30.4651 64.0108 30.988 64.0108 31.6365C64.0108 32.1026 63.7353 32.52 63.6057 32.9659C63.3261 33.9791 63.8528 34.9924 64.663 35.726C65.0122 36.1026 65.4232 36.4165 65.8784 36.6541C67.1626 37.3107 68.6413 37.5134 69.9498 38.1213C70.6029 38.4282 71.2022 38.8388 71.7242 39.3372C72.3637 40.007 72.8635 40.7973 73.1946 41.6623C73.5256 42.5272 73.6813 43.4494 73.6525 44.3752L73.924 44.4035C73.924 44.4846 73.924 44.5616 73.924 44.6427C74.2075 44.6751 74.5073 44.7034 74.8031 44.7156C75.2285 45.4027 75.7153 46.0498 76.2574 46.6489C76.1656 46.9948 76.0616 47.346 75.9455 47.7027C74.9935 48.3633 67.2072 53.5512 58.3513 52.3029C48.9 50.9694 43.4957 92.3104 43.4957 92.3104C43.1454 94.6745 42.9748 97.0619 42.9853 99.4518C42.9448 105.531 44.2209 113.487 51.3307 112.316L55.1104 111.072V131.519C55.1104 131.519 55.6492 137.121 53.7614 140.841C51.8735 144.562 59.7044 143.241 59.7044 143.241C59.7044 143.241 60.0042 143.553 60.5552 144.084L60.381 144.574L60.6119 144.809C59.582 148.332 58.1932 151.74 56.4675 154.978L56.6904 155.092C56.5486 155.363 56.4675 155.497 56.4675 155.497C56.4675 155.497 59.3763 156.985 63.3788 158.902C66.5954 169.78 73.6363 194.974 71.3191 199.772L71.3839 199.91C71.8174 200.81 74.24 206.115 73.7498 210.975C73.3082 215.32 79.3201 235.062 81.5645 242.232L80.503 242.447L84.2828 256.049L83.4725 264.852C83.4725 264.852 78.8826 277.121 89.683 274.721C100.483 272.322 97.5139 262.453 97.5139 262.453L97.7853 242.447C97.7853 242.447 96.7441 241.867 95.4599 241.312C94.5768 238.925 92.6525 233.283 92.6525 229.38C92.6525 224.314 89.1401 202.439 89.1401 202.439V202.395V202.31V202.285L89.1199 201.994V201.945C89.1199 201.673 89.0753 201.3 89.0429 200.847V200.822C88.6378 194.909 87.4224 174.818 88.3096 164.345C89.0898 163.813 89.9016 163.328 90.7403 162.894C93.3695 169.541 100.147 187.5 99.7136 195.034C99.1748 204.356 99.5799 197.037 99.7136 195.845C99.7541 195.476 99.7825 195.922 99.7947 196.923C99.7947 197.106 99.7947 197.308 99.7947 197.523C99.7947 197.738 99.7947 197.977 99.7947 198.224C99.7947 198.471 99.7947 198.739 99.7947 199.035C99.7947 199.175 99.7947 199.319 99.7947 199.464C99.7947 199.756 99.7947 200.062 99.7947 200.38C99.7947 200.54 99.7947 200.702 99.7947 200.867C99.7947 201.677 99.7947 202.577 99.7663 203.513C99.7663 203.7 99.7663 203.889 99.7663 204.081C99.7663 204.652 99.7663 205.236 99.7379 205.828C99.7379 206.638 99.7055 207.425 99.6893 208.239C99.6488 210.063 99.5961 211.907 99.5313 213.634C99.5313 213.826 99.5246 214.016 99.5111 214.205C99.4976 214.584 99.4827 214.954 99.4665 215.316C99.4503 215.678 99.4341 216.032 99.4179 216.378C99.4017 216.721 99.3841 217.055 99.3652 217.379C99.345 217.76 99.3207 218.125 99.3004 218.473L97.8339 218.262L97.5219 221.635C97.0306 226.988 97.7221 232.385 99.5475 237.441C100.05 238.828 100.439 239.975 100.524 240.384C100.795 241.717 100.524 251.327 100.524 251.327C100.524 251.327 102.144 263.863 109.708 261.46C113.111 260.377 114.764 257.086 115.554 253.787C116.43 249.963 116.103 245.961 114.618 242.329C113.544 239.63 112.446 235.844 113.22 232.918C114.569 227.852 114.569 220.65 114.569 220.65L113.735 220.532C113.943 220.137 114.131 219.731 114.298 219.316C114.298 219.316 114.026 200.911 116.457 198.512C117.794 197.191 117.672 194.017 117.267 191.423C116.689 187.669 116.553 183.86 116.862 180.075C117.028 178.125 117.267 176.427 117.547 175.823C118.26 174.413 118.973 160.195 115.817 153.353L116.465 153.15L116.364 152.648L116.465 152.615C116.941 153.887 117.482 155.133 118.086 156.348C118.245 156.473 118.428 156.564 118.624 156.616C127.371 155.08 127.723 146.913 127.237 142.455C127.606 142.633 127.808 142.746 127.808 142.746L128.619 130.993C129.449 129.116 129.757 126.721 129.737 124.131C129.773 114.874 125.333 102.731 125.333 102.731ZM115.691 136.14C115.092 131.021 114.261 126.202 114.261 126.202L110.21 111.797V106.553L116.635 130.547L115.691 136.14Z" fill="url(#paint0_linear_66_3943)"/>
</g>
<path d="M97.4782 214.821L97.1785 218.116C96.7054 223.352 97.3758 228.628 99.1433 233.579C99.6253 234.936 100.002 236.055 100.083 236.456C100.342 237.761 100.083 247.144 100.083 247.144C100.083 247.144 101.647 259.397 108.943 257.05C112.224 255.996 113.804 252.774 114.582 249.552C115.425 245.815 115.109 241.909 113.675 238.357C112.638 235.719 111.576 232.01 112.326 229.161C113.63 224.208 113.63 217.172 113.63 217.172L97.4782 214.821Z" fill="#5A5773"/>
<path d="M89.6602 158.257C89.6602 158.257 99.8205 183.021 99.2979 192.141C98.7753 201.26 99.1682 194.094 99.2979 192.923C99.5288 190.836 99.2979 215.62 98.516 218.457C98.516 218.457 109.199 226.275 113.368 215.851C113.368 215.851 113.108 197.868 115.45 195.521C116.738 194.232 116.613 191.127 116.232 188.594C115.67 184.93 115.534 181.213 115.827 177.517C115.985 175.612 116.203 173.935 116.487 173.363C117.269 171.799 118.051 154.075 113.359 149.122L89.6602 158.257Z" fill="#605D82"/>
<path opacity="0.1" d="M99.8203 218.469C100.602 215.604 100.833 190.835 100.602 192.935C100.473 194.106 100.08 201.276 100.602 192.153C101.125 183.029 90.9645 158.269 90.9645 158.269L113.696 149.523C113.59 149.389 113.481 149.264 113.371 149.146L89.6641 158.269C89.6641 158.269 99.8244 183.033 99.3018 192.153C98.7792 201.272 99.1721 194.106 99.3018 192.935C99.5327 190.848 99.3018 215.632 98.5199 218.469C98.5199 218.469 102.786 221.59 106.979 221.258C103.248 220.978 99.8203 218.469 99.8203 218.469Z" fill="black"/>
<path d="M80.8008 238.54L84.4468 251.834L83.665 260.434C83.665 260.434 79.237 272.423 89.6566 270.076C100.076 267.73 97.212 258.087 97.212 258.087L97.4713 238.54C97.4713 238.54 93.3026 236.193 91.4796 236.456C89.6566 236.72 80.8008 238.54 80.8008 238.54Z" fill="#5A5773"/>
<path d="M62.8281 152.003C62.8281 152.003 74.8114 190.84 71.9473 196.834C71.9473 196.834 74.8114 202.569 74.2929 207.777C73.7743 212.985 82.6302 240.878 82.6302 240.878L95.6587 238.532C95.6587 238.532 92.5312 230.713 92.5312 225.76C92.5312 220.808 89.1444 199.416 89.1444 199.416C89.1444 199.416 86.2803 160.316 89.667 156.146L62.8281 152.003Z" fill="#605D82"/>
<g opacity="0.1">
<path opacity="0.1" d="M88.6542 159.323C86.4949 168.175 88.8811 200.749 88.8811 200.749C88.8811 200.749 92.2678 222.121 92.2678 227.094C92.2678 230.876 94.0868 236.323 94.9497 238.69L95.6546 238.564C95.6546 238.564 92.5271 230.746 92.5271 225.793C92.5271 220.84 89.1403 199.448 89.1403 199.448C89.1403 199.448 86.9608 169.679 88.6542 159.323Z" fill="black"/>
<path opacity="0.1" d="M71.9453 196.834L72.0101 196.968C72.0304 196.834 72.0507 196.692 72.0628 196.562C72.0283 196.655 71.9891 196.746 71.9453 196.834V196.834Z" fill="black"/>
<path opacity="0.1" d="M89.0756 157.426C89.1939 156.977 89.393 156.552 89.663 156.174L62.8281 152.003C62.8281 152.003 62.9861 152.51 63.2575 153.414L89.0756 157.426Z" fill="black"/>
</g>
<path d="M125.351 137.927C125.351 137.927 129.26 152.518 117.536 154.61C117.346 154.56 117.168 154.472 117.014 154.35C117.014 154.35 110.24 141.056 115.45 135.844L125.351 137.927Z" fill="#FAC3CA"/>
<path d="M77.4158 40.9746C77.4158 40.9746 78.1977 51.9178 69.6011 57.1341C61.0046 62.3503 87.8313 76.6818 87.8313 76.6818L101.901 54.2645C101.901 54.2645 95.9133 55.0386 92.2673 44.6223L77.4158 40.9746Z" fill="#FAC3CA"/>
<path opacity="0.1" d="M71.6826 57.9082C71.6826 57.9082 84.9704 85.5377 96.9538 59.4727L115.451 151.217C115.451 151.217 86.7894 160.081 86.5342 164.252C86.279 168.422 57.6211 153.568 57.6211 153.568C57.6211 153.568 63.872 142.098 62.3123 135.062C60.7526 128.026 71.6826 57.9082 71.6826 57.9082Z" fill="black"/>
<path d="M71.6826 57.3855C71.6826 57.3855 84.9704 85.015 96.9538 58.95L115.451 150.698C115.451 150.698 86.7894 159.562 86.5342 163.733C86.279 167.904 57.6211 153.045 57.6211 153.045C57.6211 153.045 63.872 141.575 62.3123 134.539C60.7526 127.503 71.6826 57.3855 71.6826 57.3855Z" fill="#E1E7EF"/>
<path d="M84.7106 245.839C84.7106 245.839 81.3238 238.281 89.1385 238.281C96.9532 238.281 95.6528 245.057 95.6528 245.057L84.7106 245.839Z" fill="#5A5773"/>
<path d="M102.426 226.287C102.426 226.287 99.2989 218.206 107.118 217.946C114.936 217.687 111.027 225.242 111.027 225.242L102.426 226.287Z" fill="#5A5773"/>
<path opacity="0.1" d="M95.7812 51.5127C95.7812 51.5127 103.726 55.5657 106.594 55.0307C109.462 54.4957 117.013 59.4607 116.495 69.3663L121.202 84.1437C123.085 90.069 124.042 96.2498 124.038 102.467V102.467C124.038 102.467 130.812 121.233 127.166 129.574L126.384 141.044C126.384 141.044 120.392 137.656 114.137 138.697L115.713 129.331L108.664 102.739L96.9399 74.3272L95.7812 51.5127Z" fill="black"/>
<path d="M95.7812 50.9978C95.7812 50.9978 103.726 55.0508 106.594 54.5158C109.462 53.9808 117.013 58.9458 116.495 68.8514L121.202 83.6288C123.085 89.5541 124.042 95.7349 124.038 101.953V101.953C124.038 101.953 130.812 120.718 127.166 129.059L126.384 140.529C126.384 140.529 120.392 137.141 114.137 138.183L115.701 128.8L108.664 102.216L96.952 73.8042L95.7812 50.9978Z" fill="#67647E"/>
<path opacity="0.1" d="M108.939 82.6682V112.122L112.849 126.198C112.849 126.198 115.454 141.575 114.672 146.268C113.89 150.962 101.384 152.004 97.9972 148.092C94.6105 144.181 96.4335 110.804 96.4335 110.804L95.7812 61.9451L96.3038 60.3806L108.939 82.6682Z" fill="black"/>
<path d="M109.475 81.3672V110.821L113.384 124.897C113.384 124.897 115.989 140.274 115.207 144.967C114.425 149.661 101.919 150.702 98.5324 146.791C95.1456 142.88 96.9686 109.503 96.9686 109.503L96.3164 60.6318L109.475 81.3672Z" fill="#67647E"/>
<path opacity="0.1" d="M56.9648 105.868L65.3021 131.807L61.3928 142.884C61.3928 142.884 79.8903 162.432 91.6144 153.049C91.6144 153.049 92.9188 113.167 90.3099 103.785C87.701 94.4019 75.1991 62.849 75.1991 62.849L72.6104 54.52L58.8041 62.3383L56.9648 105.868Z" fill="black"/>
<path d="M56.312 104.563V130.097C56.312 130.097 56.8346 135.572 55.0075 139.22C53.1805 142.868 60.7399 141.567 60.7399 141.567C60.7399 141.567 79.2375 161.115 90.9615 151.732C90.9615 151.732 92.266 111.85 89.6571 102.467C87.0481 93.0844 74.5462 61.5316 74.5462 61.5316L71.9414 53.1904L58.135 61.0087L56.312 104.563Z" fill="#67647E"/>
<path opacity="0.1" d="M76.5047 48.6553C76.5047 48.6553 68.5604 54.52 59.4412 53.2149C50.3221 51.9099 45.1123 92.3145 45.1123 92.3145C45.1123 92.3145 41.7255 113.167 52.6677 111.344L76.8976 103.262C76.8976 103.262 71.6879 97.7861 72.4697 90.7501L60.7417 95.4394L61.2683 73.0262L76.5047 48.6553Z" fill="black"/>
<path opacity="0.1" d="M45.6279 91.7918C45.6279 91.7918 42.2412 112.645 53.1833 110.821L77.4133 102.739C77.4133 102.739 72.2035 97.2674 72.9854 90.2273L61.2654 94.9207L45.6279 91.7918Z" fill="black"/>
<path d="M72.4102 92.9752C72.4102 92.9752 80.5408 82.2792 86.5284 87.4144C92.516 92.5496 74.5573 101.961 74.5573 101.961L72.4102 92.9752Z" fill="#FAC3CA"/>
<path d="M76.5047 48.1323C76.5047 48.1323 68.5604 53.9971 59.4412 52.692C50.3221 51.3869 45.1123 91.7916 45.1123 91.7916C45.1123 91.7916 41.7255 112.644 52.6677 110.821L76.8976 102.739C76.8976 102.739 71.6879 97.2632 72.4697 90.2271L60.7417 94.9205L61.2683 72.5032L74.5561 61.56L76.5047 48.1323Z" fill="#67647E"/>
<path opacity="0.1" d="M92.5241 45.1331L77.6726 41.4854C77.6726 41.4854 78.4464 42.3608 77.543 45.7856C79.9331 48.5295 82.8702 52.1732 86.7918 52.1732C89.5981 52.1785 92.3304 51.2725 94.5781 49.5914C93.7393 48.1813 93.0509 46.687 92.5241 45.1331Z" fill="black"/>
<path d="M86.5363 51.6546C93.7318 51.6546 99.5648 45.8188 99.5648 38.62C99.5648 31.4212 93.7318 25.5854 86.5363 25.5854C79.3409 25.5854 73.5078 31.4212 73.5078 38.62C73.5078 45.8188 79.3409 51.6546 86.5363 51.6546Z" fill="#FAC3CA"/>
<path opacity="0.1" d="M91.4719 32.9619C94.4941 32.4472 97.816 31.1056 98.8288 28.2118C99.477 26.3595 98.9828 24.2519 97.9254 22.6024C96.8681 20.9528 95.3124 19.6842 93.7081 18.5493C91.1033 16.7174 88.231 15.1448 85.0954 14.5936C84.5548 14.4643 83.9913 14.4643 83.4506 14.5936C82.9805 14.7861 82.5334 15.0308 82.1178 15.3231C79.9747 16.5593 77.3091 16.0243 74.8257 15.8946C72.3424 15.7649 69.3648 16.4661 68.5829 18.8128C68.3398 19.5383 68.356 20.3205 68.1778 21.0663C67.7727 22.8901 66.3993 24.3087 65.342 25.8286C64.2846 27.3485 63.4703 29.4034 64.3616 31.0408C64.6654 31.596 65.1718 32.1067 65.1718 32.739C65.0936 33.1884 64.9575 33.6257 64.7667 34.04C64.3981 35.3856 65.4716 36.7434 66.7113 37.3838C67.9509 38.0242 69.3769 38.2227 70.6409 38.8185C71.8239 39.4026 72.8144 40.3143 73.4945 41.4452C74.1746 42.5762 74.5157 43.8787 74.4773 45.198C75.6278 45.3318 76.9688 45.4007 77.7466 44.5414C78.095 44.1564 78.2651 43.6417 78.5811 43.2323C78.9863 42.6973 79.6182 42.3812 80.1368 41.9515C82.8632 39.7102 80.9268 36.6137 82.4702 34.1981C83.2805 32.9538 84.5687 33.3348 85.8732 33.3551C87.7476 33.3989 89.622 33.2673 91.4719 32.9619V32.9619Z" fill="black"/>
<path d="M91.2141 32.7024C94.2363 32.1877 97.5582 30.8461 98.571 27.9522C99.2192 26.1 98.725 23.9924 97.6676 22.3428C96.6102 20.6933 95.0546 19.4247 93.4503 18.2898C90.8455 16.4578 87.9732 14.8853 84.8376 14.334C84.2969 14.2047 83.7335 14.2047 83.1928 14.334C82.7227 14.5266 82.2756 14.7713 81.86 15.0636C79.7169 16.2998 77.0513 15.7648 74.5679 15.6351C72.0845 15.5054 69.107 16.2065 68.3251 18.5533C68.082 19.2787 68.0982 20.061 67.92 20.8067C67.5149 22.6306 66.1415 24.0492 65.0842 25.5691C64.0268 27.0889 63.2125 29.1438 64.1038 30.7813C64.4076 31.3365 64.914 31.8472 64.914 32.4795C64.8358 32.9289 64.6997 33.3662 64.5089 33.7805C64.1402 35.1261 65.2138 36.4839 66.4534 37.1243C67.6931 37.7646 69.1191 37.9632 70.3831 38.559C71.5709 39.1425 72.5656 40.056 73.2482 41.1902C73.9307 42.3245 74.2721 43.6314 74.2317 44.9547C75.3822 45.0885 76.7231 45.1574 77.501 44.2981C77.8493 43.9131 78.0195 43.3983 78.3355 42.989C78.7406 42.454 79.3726 42.1379 79.8911 41.7082C82.6176 39.4669 80.6811 36.3704 82.2246 33.9548C83.0348 32.7105 84.3231 33.0915 85.6276 33.1118C87.4984 33.1495 89.3687 33.0125 91.2141 32.7024Z" fill="#4A4347"/>
<path opacity="0.1" d="M106.984 76.5442C106.984 76.5442 109.849 91.4026 108.548 97.1377C107.754 100.474 107.871 103.963 108.888 107.238" fill="black"/>
<path opacity="0.1" d="M60.684 82.7979C60.684 82.7979 59.4362 92.7035 61.5144 94.7867Z" fill="black"/>
<path d="M133.432 204.871C133.593 204.871 133.748 204.807 133.862 204.693C133.976 204.579 134.04 204.424 134.04 204.263C134.04 204.102 133.976 203.947 133.862 203.833C133.748 203.719 133.593 203.655 133.432 203.655C133.271 203.655 133.116 203.719 133.002 203.833C132.888 203.947 132.824 204.102 132.824 204.263C132.824 204.424 132.888 204.579 133.002 204.693C133.116 204.807 133.271 204.871 133.432 204.871Z" fill="black"/>
<g opacity="0.5">
<path opacity="0.5" d="M320.542 134.045V133.708L210.01 48.6755C209.94 48.6238 209.856 48.5959 209.769 48.5959C209.682 48.5959 209.598 48.6238 209.528 48.6755L98.9922 133.708V265.513H99.2029V265.724H320.757V133.919L320.542 134.045Z" fill="url(#paint1_linear_66_3943)"/>
</g>
<path d="M316.725 261.837H102.824V134.571L209.775 52.2949L316.725 134.571V261.837Z" fill="white"/>
<path d="M309.026 254.294H110.52V136.189L209.773 59.8335L309.026 136.189V254.294Z" fill="#E0E0E0"/>
<path d="M243.448 58.0687L122.359 89.8279L162.733 243.905L283.822 212.146L243.448 58.0687Z" fill="#2091F9"/>
<path d="M272.974 81.4768H147.793V240.761H272.974V81.4768Z" fill="#F5F5F5"/>
<path opacity="0.05" d="M103.836 134.774L210.786 198.407L103.836 262.039V134.774Z" fill="black"/>
<path d="M103.027 134.774L209.978 198.407L103.027 262.039V134.774Z" fill="white"/>
<path opacity="0.05" d="M316.118 134.774L209.168 198.407L316.118 262.039V134.774Z" fill="black"/>
<path d="M316.927 134.774L209.977 198.407L316.927 262.039V134.774Z" fill="white"/>
<path opacity="0.05" d="M103.027 260.013L209.978 176.52L316.928 260.013H103.027Z" fill="black"/>
<path d="M103.027 262.039L209.978 178.547L316.928 262.039H103.027Z" fill="white"/>
<path d="M124.763 271.706C124.763 271.706 119.391 253.467 125.772 240.035C128.483 234.421 129.3 228.078 128.101 221.959C127.51 219.059 126.654 216.219 125.545 213.476" stroke="#535461" stroke-width="2" stroke-miterlimit="10"/>
<path d="M129.509 204.989C129.509 207.226 125.457 213.707 125.457 213.707C125.457 213.707 121.406 207.222 121.406 204.989C121.406 203.914 121.833 202.883 122.593 202.123C123.353 201.363 124.383 200.936 125.457 200.936C126.532 200.936 127.562 201.363 128.322 202.123C129.082 202.883 129.509 203.914 129.509 204.989Z" fill="#6C63FF"/>
<path d="M136.213 217.375C134.997 219.252 128.078 222.494 128.078 222.494C128.078 222.494 128.204 214.85 129.419 212.973C130.025 212.125 130.935 211.542 131.959 211.347C132.983 211.152 134.043 211.36 134.918 211.927C135.793 212.494 136.416 213.377 136.657 214.391C136.898 215.406 136.739 216.475 136.213 217.375Z" fill="#6C63FF"/>
<path d="M135.906 238.536C133.909 239.541 126.301 238.848 126.301 238.848C126.301 238.848 130.267 232.314 132.26 231.309C132.737 231.042 133.263 230.874 133.807 230.816C134.35 230.758 134.9 230.81 135.423 230.97C135.945 231.13 136.43 231.394 136.848 231.747C137.266 232.099 137.609 232.532 137.855 233.021C138.101 233.509 138.246 234.042 138.281 234.588C138.316 235.134 138.24 235.681 138.058 236.196C137.876 236.712 137.591 237.185 137.221 237.588C136.852 237.991 136.404 238.315 135.906 238.54V238.536Z" fill="#6C63FF"/>
<path d="M132.083 254.501C130.284 255.83 122.668 256.43 122.668 256.43C122.668 256.43 125.471 249.321 127.27 247.992C128.136 247.414 129.19 247.191 130.215 247.37C131.24 247.549 132.157 248.116 132.775 248.953C133.394 249.79 133.667 250.832 133.538 251.865C133.409 252.898 132.888 253.842 132.083 254.501V254.501Z" fill="#6C63FF"/>
<path d="M119.568 222.923C121.188 224.48 128.638 226.097 128.638 226.097C128.638 226.097 126.811 218.676 125.207 217.119C124.426 216.429 123.41 216.067 122.37 216.106C121.329 216.146 120.344 216.585 119.618 217.332C118.892 218.08 118.482 219.078 118.473 220.12C118.463 221.162 118.855 222.167 119.568 222.927V222.923Z" fill="#6C63FF"/>
<path d="M115.331 241.652C117.328 242.658 124.936 241.965 124.936 241.965C124.936 241.965 120.97 235.431 118.977 234.426C118.025 233.996 116.944 233.95 115.959 234.298C114.975 234.646 114.162 235.361 113.692 236.294C113.222 237.227 113.129 238.305 113.435 239.305C113.74 240.304 114.42 241.146 115.331 241.657V241.652Z" fill="#6C63FF"/>
<path d="M113.709 260.418C115.508 261.747 123.124 262.347 123.124 262.347C123.124 262.347 120.321 255.238 118.522 253.909C118.097 253.561 117.606 253.304 117.079 253.152C116.552 253 116 252.957 115.455 253.025C114.911 253.093 114.386 253.271 113.913 253.548C113.439 253.825 113.027 254.195 112.7 254.636C112.374 255.077 112.141 255.58 112.015 256.114C111.889 256.648 111.872 257.203 111.967 257.743C112.061 258.284 112.264 258.8 112.563 259.26C112.863 259.719 113.253 260.113 113.709 260.418V260.418Z" fill="#6C63FF"/>
<path opacity="0.5" d="M205.32 88.7722H155.086V92.8253H205.32V88.7722Z" fill="#6C63FF"/>
<path opacity="0.5" d="M263.657 104.984H155.086V109.037H263.657V104.984Z" fill="#6C63FF"/>
<path opacity="0.5" d="M263.657 115.522H155.086V119.575H263.657V115.522Z" fill="#6C63FF"/>
<path opacity="0.4" d="M263.657 126.06H155.086V130.113H263.657V126.06Z" fill="#6C63FF"/>
<path opacity="0.4" d="M263.657 136.598H155.086V140.651H263.657V136.598Z" fill="#6C63FF"/>
<path opacity="0.3" d="M217.069 147.136H155.086V151.189H217.069V147.136Z" fill="#6C63FF"/>
<path opacity="0.3" d="M239.755 157.674H155.086V161.727H239.755V157.674Z" fill="#6C63FF"/>
</g>
<defs>
<linearGradient id="paint0_linear_66_3943" x1="42.9893" y1="144.027" x2="129.692" y2="144.027" gradientUnits="userSpaceOnUse">
<stop stop-color="#808080" stop-opacity="0.25"/>
<stop offset="0.54" stop-color="#808080" stop-opacity="0.12"/>
<stop offset="1" stop-color="#808080" stop-opacity="0.1"/>
</linearGradient>
<linearGradient id="paint1_linear_66_3943" x1="141325" y1="160842" x2="141325" y2="44516.3" gradientUnits="userSpaceOnUse">
<stop stop-color="#808080" stop-opacity="0.25"/>
<stop offset="0.54" stop-color="#808080" stop-opacity="0.12"/>
<stop offset="1" stop-color="#808080" stop-opacity="0.1"/>
</linearGradient>
<clipPath id="clip0_66_3943">
<rect width="389" height="295" fill="white" transform="translate(0.5 0.476807)"/>
</clipPath>
</defs>
</svg>
