<svg width="198" height="62" viewBox="0 0 198 62" fill="none" xmlns="http://www.w3.org/2000/svg">
<g clip-path="url(#clip0_67_6709)">
<g clip-path="url(#clip1_67_6709)">
<path d="M33.828 56.2203C27.612 56.2203 22.7033 54.8636 19.102 52.1502C15.55 49.4369 13.5027 45.5396 12.96 40.4582H26.872C27.464 43.4676 29.536 44.9722 33.088 44.9722C36.1467 44.9722 38.3913 43.8376 39.822 41.5682C41.302 39.2989 42.0913 35.8456 42.19 31.2082C39.5753 35.3522 35.5793 37.4242 30.202 37.4242C24.9233 37.4242 20.6067 35.9442 17.252 32.9842C13.9467 29.9749 12.294 25.7569 12.294 20.3302C12.294 14.7062 14.2427 10.1922 18.14 6.78825C22.0867 3.38425 27.39 1.68225 34.05 1.68225C41.6967 1.68225 47.4687 4.02558 51.366 8.71225C55.2633 13.3496 57.212 19.6396 57.212 27.5822V29.3582C57.212 37.9422 55.1893 44.5776 51.144 49.2642C47.148 53.9016 41.376 56.2203 33.828 56.2203ZM28.648 25.5842C29.9307 26.9656 31.6573 27.6562 33.828 27.6562C35.9987 27.6562 37.75 26.9656 39.082 25.5842C40.414 24.1536 41.08 22.3776 41.08 20.2562C41.08 17.8882 40.414 15.9889 39.082 14.5582C37.7993 13.0782 36.048 12.3382 33.828 12.3382C31.756 12.3382 30.054 13.0782 28.722 14.5582C27.4393 15.9889 26.798 17.8389 26.798 20.1082C26.798 22.3282 27.4147 24.1536 28.648 25.5842ZM83.2409 56.2203C77.0249 56.2203 72.1162 54.8636 68.5149 52.1502C64.9629 49.4369 62.9156 45.5396 62.3729 40.4582H76.2849C76.8769 43.4676 78.9489 44.9722 82.5009 44.9722C85.5596 44.9722 87.8042 43.8376 89.2349 41.5682C90.7149 39.2989 91.5042 35.8456 91.6029 31.2082C88.9882 35.3522 84.9922 37.4242 79.6149 37.4242C74.3362 37.4242 70.0196 35.9442 66.6649 32.9842C63.3596 29.9749 61.7069 25.7569 61.7069 20.3302C61.7069 14.7062 63.6556 10.1922 67.5529 6.78825C71.4996 3.38425 76.8029 1.68225 83.4629 1.68225C91.1096 1.68225 96.8816 4.02558 100.779 8.71225C104.676 13.3496 106.625 19.6396 106.625 27.5822V29.3582C106.625 37.9422 104.602 44.5776 100.557 49.2642C96.5609 53.9016 90.7889 56.2203 83.2409 56.2203ZM78.0609 25.5842C79.3436 26.9656 81.0702 27.6562 83.2409 27.6562C85.4116 27.6562 87.1629 26.9656 88.4949 25.5842C89.8269 24.1536 90.4929 22.3776 90.4929 20.2562C90.4929 17.8882 89.8269 15.9889 88.4949 14.5582C87.2122 13.0782 85.4609 12.3382 83.2409 12.3382C81.1689 12.3382 79.4669 13.0782 78.1349 14.5582C76.8522 15.9889 76.2109 17.8389 76.2109 20.1082C76.2109 22.3282 76.8276 24.1536 78.0609 25.5842Z" fill="#252B42"/>
</g>
<g clip-path="url(#clip2_67_6709)">
<g clip-path="url(#clip3_67_6709)">
<path d="M125.76 24.6063V22.1063C124.08 21.9863 122.793 21.5129 121.9 20.6862C121.02 19.8462 120.547 18.7462 120.48 17.3862H124.18C124.3 18.4396 124.827 19.0663 125.76 19.2663V16.3462C124 16.0929 122.733 15.6196 121.96 14.9262C121.187 14.2196 120.8 13.1796 120.8 11.8063C120.8 10.5929 121.247 9.58625 122.14 8.78625C123.033 7.98625 124.24 7.53292 125.76 7.42625V5.64625H127.32V7.44625C130.333 7.69958 131.953 9.13958 132.18 11.7662H128.56C128.427 10.9529 128.013 10.4529 127.32 10.2662V13.0262C128.987 13.2662 130.247 13.7129 131.1 14.3662C131.953 15.0196 132.38 16.0329 132.38 17.4062C132.38 18.6996 131.953 19.7796 131.1 20.6462C130.247 21.5129 128.987 21.9996 127.32 22.1063V24.6063H125.76ZM128.66 17.8462C128.66 17.4996 128.567 17.2396 128.38 17.0662C128.193 16.8796 127.84 16.7262 127.32 16.6062V19.2663C128.213 19.0796 128.66 18.6062 128.66 17.8462ZM124.4 11.5062C124.4 11.8662 124.493 12.1462 124.68 12.3462C124.88 12.5329 125.24 12.6796 125.76 12.7862V10.2262C124.853 10.3862 124.4 10.8129 124.4 11.5062Z" fill="#252B42"/>
</g>
<g clip-path="url(#clip4_67_6709)">
<path d="M121.44 45.9062V34.4662H124.688C125.872 34.4662 126.832 34.7436 127.568 35.2982C128.315 35.8422 128.688 36.6796 128.688 37.8102V37.8742C128.688 39.0262 128.315 39.8796 127.568 40.4342C126.832 40.9782 125.872 41.2502 124.688 41.2502H122.832V45.9062H121.44ZM122.832 40.1462H124.784C125.595 40.1462 126.213 39.9542 126.64 39.5702C127.077 39.1756 127.296 38.6102 127.296 37.8742V37.8102C127.296 36.3276 126.459 35.5862 124.784 35.5862H122.832V40.1462ZM133.931 46.0503C132.736 46.0503 131.76 45.6663 131.003 44.8982C130.256 44.1196 129.883 43.0902 129.883 41.8102V41.6823C129.883 40.4236 130.245 39.3942 130.971 38.5942C131.707 37.7942 132.651 37.3942 133.803 37.3942C134.869 37.3942 135.76 37.7409 136.475 38.4342C137.2 39.1169 137.563 40.1569 137.563 41.5542V41.9862H131.259C131.291 42.9462 131.531 43.6822 131.979 44.1942C132.437 44.6956 133.093 44.9462 133.947 44.9462C135.259 44.9462 136 44.4609 136.171 43.4902H137.499C137.36 44.3116 136.971 44.9462 136.331 45.3942C135.691 45.8316 134.891 46.0503 133.931 46.0503ZM131.307 40.9142H136.203C136.085 39.3036 135.285 38.4982 133.803 38.4982C133.131 38.4982 132.576 38.7169 132.139 39.1542C131.701 39.5809 131.424 40.1676 131.307 40.9142ZM139.7 45.9062V37.5382H141.028V39.0422C141.316 38.5196 141.668 38.1196 142.084 37.8422C142.511 37.5649 143.076 37.4156 143.78 37.3942V38.6422C142.863 38.6849 142.175 38.8982 141.716 39.2822C141.258 39.6662 141.028 40.3436 141.028 41.3142V45.9062H139.7ZM150.246 45.9062V34.4662H152.182L155.718 43.3782L159.142 34.4662H161.062V45.9062H159.67V36.2742L155.878 45.9062H155.446L151.526 36.2742V45.9062H150.246ZM167.441 44.9462C168.273 44.9462 168.935 44.6582 169.425 44.0822C169.927 43.5062 170.177 42.7436 170.177 41.7943V41.6823C170.177 40.7116 169.927 39.9382 169.425 39.3622C168.935 38.7862 168.273 38.4982 167.441 38.4982C166.599 38.4982 165.932 38.7862 165.441 39.3622C164.951 39.9382 164.705 40.7062 164.705 41.6662V41.7943C164.705 42.7542 164.951 43.5222 165.441 44.0982C165.932 44.6636 166.599 44.9462 167.441 44.9462ZM167.425 46.0503C166.241 46.0503 165.26 45.6503 164.481 44.8503C163.713 44.0396 163.329 43.0209 163.329 41.7943V41.6662C163.329 40.4182 163.713 39.3942 164.481 38.5942C165.26 37.7942 166.247 37.3942 167.441 37.3942C168.636 37.3942 169.617 37.7942 170.385 38.5942C171.164 39.3836 171.553 40.4022 171.553 41.6502V41.7782C171.553 43.0369 171.164 44.0662 170.385 44.8662C169.607 45.6556 168.62 46.0503 167.425 46.0503ZM173.71 45.9062V37.5382H175.038V38.8662C175.24 38.4396 175.576 38.0876 176.046 37.8102C176.515 37.5329 177.075 37.3942 177.726 37.3942C178.643 37.3942 179.363 37.6662 179.886 38.2102C180.408 38.7542 180.67 39.6076 180.67 40.7702V45.9062H179.342V40.6742C179.342 39.9382 179.182 39.3996 178.862 39.0582C178.542 38.7169 178.046 38.5462 177.374 38.5462C176.723 38.5462 176.168 38.7489 175.71 39.1542C175.262 39.5596 175.038 40.1196 175.038 40.8342V45.9062H173.71ZM185.916 46.0183C185.18 46.0183 184.62 45.8209 184.236 45.4262C183.852 45.0316 183.66 44.4929 183.66 43.8102V38.6582H182.46V37.5382H183.66V35.6342H184.988V37.5382H186.94V38.6582H184.988V43.6822C184.988 44.4929 185.335 44.8982 186.028 44.8982C186.412 44.8982 186.753 44.8396 187.052 44.7222V45.8422C186.721 45.9596 186.343 46.0183 185.916 46.0183ZM189.16 45.9062V33.5382H190.488V38.8662C190.69 38.4396 191.026 38.0876 191.496 37.8102C191.965 37.5329 192.525 37.3942 193.176 37.3942C194.093 37.3942 194.813 37.6662 195.336 38.2102C195.858 38.7542 196.12 39.6076 196.12 40.7702V45.9062H194.792V40.6742C194.792 39.9382 194.632 39.3996 194.312 39.0582C193.992 38.7169 193.496 38.5462 192.824 38.5462C192.173 38.5462 191.618 38.7489 191.16 39.1542C190.712 39.5596 190.488 40.1196 190.488 40.8342V45.9062H189.16Z" fill="#374754"/>
</g>
</g>
</g>
<defs>
<clipPath id="clip0_67_6709">
<rect width="198" height="61" fill="white" transform="translate(0 0.90625)"/>
</clipPath>
<clipPath id="clip1_67_6709">
<rect width="120" height="104" fill="white" transform="translate(0 -20.5938)"/>
</clipPath>
<clipPath id="clip2_67_6709">
<rect width="78" height="51" fill="white" transform="translate(120 0.90625)"/>
</clipPath>
<clipPath id="clip3_67_6709">
<rect width="13" height="28" fill="white" transform="translate(120 0.90625)"/>
</clipPath>
<clipPath id="clip4_67_6709">
<rect width="78" height="23" fill="white" transform="translate(120 28.9062)"/>
</clipPath>
</defs>
</svg>
