<svg width="186" height="62" viewBox="0 0 186 62" fill="none" xmlns="http://www.w3.org/2000/svg">
<g clip-path="url(#clip0_67_6687)">
<g clip-path="url(#clip1_67_6687)">
<path d="M22.432 55.4062V17.4442L12.368 23.6602V11.0062L24.504 2.49625H37.602V55.4062H22.432ZM70.7465 44.5283C73.9531 44.5283 76.2718 43.3442 77.7025 40.9762C79.1331 38.6082 79.8485 34.9329 79.8485 29.9502V27.8042C79.8485 22.9202 79.1085 19.2696 77.6285 16.8522C76.1485 14.4349 73.8051 13.2262 70.5985 13.2262C64.4318 13.2262 61.3485 18.0856 61.3485 27.8042V30.0242C61.3485 34.9576 62.0885 38.6082 63.5685 40.9762C65.0978 43.3442 67.4905 44.5283 70.7465 44.5283ZM70.3025 56.2943C62.8531 56.2943 56.9578 54.0002 52.6165 49.4122C48.3245 44.7749 46.1785 38.3369 46.1785 30.0982V27.8782C46.1785 19.7382 48.4478 13.3496 52.9865 8.71225C57.5251 4.07491 63.3958 1.75625 70.5985 1.75625C77.8505 1.75625 83.7211 4.00092 88.2105 8.49025C92.7491 12.9302 95.0185 19.2942 95.0185 27.5822V29.6542C95.0185 37.9916 92.7985 44.5282 88.3585 49.2642C83.9185 53.9509 77.8998 56.2943 70.3025 56.2943Z" fill="white"/>
</g>
<g clip-path="url(#clip2_67_6687)">
<g clip-path="url(#clip3_67_6687)">
<path d="M113.76 24.6063V22.1063C112.08 21.9863 110.793 21.5129 109.9 20.6862C109.02 19.8462 108.547 18.7462 108.48 17.3862H112.18C112.3 18.4396 112.827 19.0663 113.76 19.2663V16.3462C112 16.0929 110.733 15.6196 109.96 14.9262C109.187 14.2196 108.8 13.1796 108.8 11.8063C108.8 10.5929 109.247 9.58625 110.14 8.78625C111.033 7.98625 112.24 7.53292 113.76 7.42625V5.64625H115.32V7.44625C118.333 7.69958 119.953 9.13958 120.18 11.7662H116.56C116.427 10.9529 116.013 10.4529 115.32 10.2662V13.0262C116.987 13.2662 118.247 13.7129 119.1 14.3662C119.953 15.0196 120.38 16.0329 120.38 17.4062C120.38 18.6996 119.953 19.7796 119.1 20.6462C118.247 21.5129 116.987 21.9996 115.32 22.1063V24.6063H113.76ZM116.66 17.8462C116.66 17.4996 116.567 17.2396 116.38 17.0662C116.193 16.8796 115.84 16.7262 115.32 16.6062V19.2663C116.213 19.0796 116.66 18.6062 116.66 17.8462ZM112.4 11.5062C112.4 11.8662 112.493 12.1462 112.68 12.3462C112.88 12.5329 113.24 12.6796 113.76 12.7862V10.2262C112.853 10.3862 112.4 10.8129 112.4 11.5062Z" fill="white"/>
</g>
<g clip-path="url(#clip4_67_6687)">
<path d="M109.44 45.9062V34.4662H112.688C113.872 34.4662 114.832 34.7436 115.568 35.2982C116.315 35.8422 116.688 36.6796 116.688 37.8102V37.8742C116.688 39.0262 116.315 39.8796 115.568 40.4342C114.832 40.9782 113.872 41.2502 112.688 41.2502H110.832V45.9062H109.44ZM110.832 40.1462H112.784C113.595 40.1462 114.213 39.9542 114.64 39.5702C115.077 39.1756 115.296 38.6102 115.296 37.8742V37.8102C115.296 36.3276 114.459 35.5862 112.784 35.5862H110.832V40.1462ZM121.931 46.0503C120.736 46.0503 119.76 45.6663 119.003 44.8982C118.256 44.1196 117.883 43.0902 117.883 41.8102V41.6823C117.883 40.4236 118.245 39.3942 118.971 38.5942C119.707 37.7942 120.651 37.3942 121.803 37.3942C122.869 37.3942 123.76 37.7409 124.475 38.4342C125.2 39.1169 125.563 40.1569 125.563 41.5542V41.9862H119.259C119.291 42.9462 119.531 43.6822 119.979 44.1942C120.437 44.6956 121.093 44.9462 121.947 44.9462C123.259 44.9462 124 44.4609 124.171 43.4902H125.499C125.36 44.3116 124.971 44.9462 124.331 45.3942C123.691 45.8316 122.891 46.0503 121.931 46.0503ZM119.307 40.9142H124.203C124.085 39.3036 123.285 38.4982 121.803 38.4982C121.131 38.4982 120.576 38.7169 120.139 39.1542C119.701 39.5809 119.424 40.1676 119.307 40.9142ZM127.7 45.9062V37.5382H129.028V39.0422C129.316 38.5196 129.668 38.1196 130.084 37.8422C130.511 37.5649 131.076 37.4156 131.78 37.3942V38.6422C130.863 38.6849 130.175 38.8982 129.716 39.2822C129.258 39.6662 129.028 40.3436 129.028 41.3142V45.9062H127.7ZM138.246 45.9062V34.4662H140.182L143.718 43.3782L147.142 34.4662H149.062V45.9062H147.67V36.2742L143.878 45.9062H143.446L139.526 36.2742V45.9062H138.246ZM155.441 44.9462C156.273 44.9462 156.935 44.6582 157.425 44.0822C157.927 43.5062 158.177 42.7436 158.177 41.7943V41.6823C158.177 40.7116 157.927 39.9382 157.425 39.3622C156.935 38.7862 156.273 38.4982 155.441 38.4982C154.599 38.4982 153.932 38.7862 153.441 39.3622C152.951 39.9382 152.705 40.7062 152.705 41.6662V41.7943C152.705 42.7542 152.951 43.5222 153.441 44.0982C153.932 44.6636 154.599 44.9462 155.441 44.9462ZM155.425 46.0503C154.241 46.0503 153.26 45.6503 152.481 44.8503C151.713 44.0396 151.329 43.0209 151.329 41.7943V41.6662C151.329 40.4182 151.713 39.3942 152.481 38.5942C153.26 37.7942 154.247 37.3942 155.441 37.3942C156.636 37.3942 157.617 37.7942 158.385 38.5942C159.164 39.3836 159.553 40.4022 159.553 41.6502V41.7782C159.553 43.0369 159.164 44.0662 158.385 44.8662C157.607 45.6556 156.62 46.0503 155.425 46.0503ZM161.71 45.9062V37.5382H163.038V38.8662C163.24 38.4396 163.576 38.0876 164.046 37.8102C164.515 37.5329 165.075 37.3942 165.726 37.3942C166.643 37.3942 167.363 37.6662 167.886 38.2102C168.408 38.7542 168.67 39.6076 168.67 40.7702V45.9062H167.342V40.6742C167.342 39.9382 167.182 39.3996 166.862 39.0582C166.542 38.7169 166.046 38.5462 165.374 38.5462C164.723 38.5462 164.168 38.7489 163.71 39.1542C163.262 39.5596 163.038 40.1196 163.038 40.8342V45.9062H161.71ZM173.916 46.0183C173.18 46.0183 172.62 45.8209 172.236 45.4262C171.852 45.0316 171.66 44.4929 171.66 43.8102V38.6582H170.46V37.5382H171.66V35.6342H172.988V37.5382H174.94V38.6582H172.988V43.6822C172.988 44.4929 173.335 44.8982 174.028 44.8982C174.412 44.8982 174.753 44.8396 175.052 44.7222V45.8422C174.721 45.9596 174.343 46.0183 173.916 46.0183ZM177.16 45.9062V33.5382H178.488V38.8662C178.69 38.4396 179.026 38.0876 179.496 37.8102C179.965 37.5329 180.525 37.3942 181.176 37.3942C182.093 37.3942 182.813 37.6662 183.336 38.2102C183.858 38.7542 184.12 39.6076 184.12 40.7702V45.9062H182.792V40.6742C182.792 39.9382 182.632 39.3996 182.312 39.0582C181.992 38.7169 181.496 38.5462 180.824 38.5462C180.173 38.5462 179.618 38.7489 179.16 39.1542C178.712 39.5596 178.488 40.1196 178.488 40.8342V45.9062H177.16Z" fill="white"/>
</g>
</g>
</g>
<defs>
<clipPath id="clip0_67_6687">
<rect width="186" height="61" fill="white" transform="translate(0 0.90625)"/>
</clipPath>
<clipPath id="clip1_67_6687">
<rect width="108" height="104" fill="white" transform="translate(0 -20.5938)"/>
</clipPath>
<clipPath id="clip2_67_6687">
<rect width="78" height="51" fill="white" transform="translate(108 0.90625)"/>
</clipPath>
<clipPath id="clip3_67_6687">
<rect width="13" height="28" fill="white" transform="translate(108 0.90625)"/>
</clipPath>
<clipPath id="clip4_67_6687">
<rect width="78" height="23" fill="white" transform="translate(108 28.9062)"/>
</clipPath>
</defs>
</svg>
