<svg width="42" height="42" viewBox="0 0 42 42" fill="none" xmlns="http://www.w3.org/2000/svg">
<path d="M37.665 11.0852C36.4402 11.6135 35.1073 11.9938 33.7344 12.1419C35.1598 11.2951 36.2272 9.95726 36.7364 8.37944C35.3988 9.17511 33.9336 9.73305 32.4056 10.0285C31.7669 9.34577 30.9945 8.80187 30.1365 8.4307C29.2785 8.05953 28.3532 7.86905 27.4183 7.87111C23.6359 7.87111 20.5939 10.9371 20.5939 14.6995C20.5939 15.2279 20.6579 15.7562 20.762 16.2646C15.0983 15.9684 10.0471 13.2626 6.68889 9.11992C6.07699 10.1651 5.75634 11.3551 5.76028 12.5662C5.76028 14.9357 6.96507 17.0251 8.80226 18.2538C7.71957 18.2112 6.66224 17.9136 5.71626 17.3853V17.4693C5.71626 20.7875 8.06178 23.5373 11.1878 24.1697C10.6009 24.3221 9.99706 24.4001 9.39064 24.4018C8.94635 24.4018 8.52608 24.3578 8.1018 24.2978C8.96636 27.0035 11.484 28.9688 14.4819 29.0328C12.1364 30.87 9.19851 31.9507 6.00845 31.9507C5.43607 31.9507 4.90773 31.9307 4.35938 31.8667C7.38534 33.8079 10.9757 34.9287 14.8422 34.9287C27.3943 34.9287 34.2628 24.5299 34.2628 15.5041C34.2628 15.2079 34.2628 14.9117 34.2428 14.6155C35.5716 13.6429 36.7364 12.4381 37.665 11.0852Z" fill="#2091F9"/>
</svg>
