<svg width="42" height="42" viewBox="0 0 42 42" fill="none" xmlns="http://www.w3.org/2000/svg">
<path d="M37.665 11.0715C36.4402 11.5999 35.1073 11.9801 33.7344 12.1282C35.1598 11.2814 36.2272 9.94359 36.7364 8.36577C35.3988 9.16144 33.9336 9.71938 32.4056 10.0148C31.7669 9.3321 30.9945 8.7882 30.1365 8.41703C29.2785 8.04586 28.3532 7.85537 27.4183 7.85744C23.6359 7.85744 20.5939 10.9234 20.5939 14.6859C20.5939 15.2142 20.6579 15.7426 20.762 16.2509C15.0983 15.9547 10.0471 13.2489 6.68889 9.10625C6.07699 10.1514 5.75634 11.3414 5.76028 12.5525C5.76028 14.922 6.96507 17.0114 8.80226 18.2402C7.71957 18.1975 6.66224 17.8999 5.71626 17.3716V17.4557C5.71626 20.7738 8.06178 23.5236 11.1878 24.156C10.6009 24.3085 9.99706 24.3865 9.39064 24.3882C8.94635 24.3882 8.52608 24.3441 8.1018 24.2841C8.96636 26.9899 11.484 28.9551 14.4819 29.0192C12.1364 30.8564 9.19851 31.9371 6.00845 31.9371C5.43607 31.9371 4.90773 31.9171 4.35938 31.853C7.38534 33.7943 10.9757 34.915 14.8422 34.915C27.3943 34.915 34.2628 24.5162 34.2628 15.4904C34.2628 15.1942 34.2628 14.898 34.2428 14.6018C35.5716 13.6292 36.7364 12.4244 37.665 11.0715Z" fill="white"/>
</svg>
