<svg width="154" height="62" viewBox="0 0 154 62" fill="none" xmlns="http://www.w3.org/2000/svg">
<g clip-path="url(#clip0_67_6665)">
<g clip-path="url(#clip1_67_6665)">
<path d="M37.732 44.5283C40.9387 44.5283 43.2573 43.3442 44.688 40.9762C46.1187 38.6082 46.834 34.9329 46.834 29.9502V27.8042C46.834 22.9202 46.094 19.2696 44.614 16.8522C43.134 14.4349 40.7907 13.2262 37.584 13.2262C31.4173 13.2262 28.334 18.0856 28.334 27.8042V30.0242C28.334 34.9576 29.074 38.6082 30.554 40.9762C32.0833 43.3442 34.476 44.5283 37.732 44.5283ZM37.288 56.2943C29.8387 56.2943 23.9433 54.0002 19.602 49.4122C15.31 44.7749 13.164 38.3369 13.164 30.0982V27.8782C13.164 19.7382 15.4333 13.3496 19.972 8.71225C24.5107 4.07491 30.3813 1.75625 37.584 1.75625C44.836 1.75625 50.7067 4.00092 55.196 8.49025C59.7347 12.9302 62.004 19.2942 62.004 27.5822V29.6542C62.004 37.9916 59.784 44.5282 55.344 49.2642C50.904 53.9509 44.8853 56.2943 37.288 56.2943Z" fill="#252B42"/>
</g>
<g clip-path="url(#clip2_67_6665)">
<g clip-path="url(#clip3_67_6665)">
<path d="M81.26 24.6063V22.1063C79.58 21.9863 78.2933 21.5129 77.4 20.6862C76.52 19.8462 76.0467 18.7462 75.98 17.3862H79.68C79.8 18.4396 80.3267 19.0663 81.26 19.2663V16.3462C79.5 16.0929 78.2333 15.6196 77.46 14.9262C76.6867 14.2196 76.3 13.1796 76.3 11.8063C76.3 10.5929 76.7467 9.58625 77.64 8.78625C78.5333 7.98625 79.74 7.53292 81.26 7.42625V5.64625H82.82V7.44625C85.8333 7.69958 87.4533 9.13958 87.68 11.7662H84.06C83.9267 10.9529 83.5133 10.4529 82.82 10.2662V13.0262C84.4867 13.2662 85.7467 13.7129 86.6 14.3662C87.4533 15.0196 87.88 16.0329 87.88 17.4062C87.88 18.6996 87.4533 19.7796 86.6 20.6462C85.7467 21.5129 84.4867 21.9996 82.82 22.1063V24.6063H81.26ZM84.16 17.8462C84.16 17.4996 84.0667 17.2396 83.88 17.0662C83.6933 16.8796 83.34 16.7262 82.82 16.6062V19.2663C83.7133 19.0796 84.16 18.6062 84.16 17.8462ZM79.9 11.5062C79.9 11.8662 79.9933 12.1462 80.18 12.3462C80.38 12.5329 80.74 12.6796 81.26 12.7862V10.2262C80.3533 10.3862 79.9 10.8129 79.9 11.5062Z" fill="#252B42"/>
</g>
<g clip-path="url(#clip4_67_6665)">
<path d="M76.94 45.9062V34.4662H80.188C81.372 34.4662 82.332 34.7436 83.068 35.2982C83.8147 35.8422 84.188 36.6796 84.188 37.8102V37.8742C84.188 39.0262 83.8147 39.8796 83.068 40.4342C82.332 40.9782 81.372 41.2502 80.188 41.2502H78.332V45.9062H76.94ZM78.332 40.1462H80.284C81.0947 40.1462 81.7133 39.9542 82.14 39.5702C82.5773 39.1756 82.796 38.6102 82.796 37.8742V37.8102C82.796 36.3276 81.9587 35.5862 80.284 35.5862H78.332V40.1462ZM89.4305 46.0503C88.2358 46.0503 87.2598 45.6663 86.5025 44.8982C85.7558 44.1196 85.3825 43.0902 85.3825 41.8102V41.6823C85.3825 40.4236 85.7452 39.3942 86.4705 38.5942C87.2065 37.7942 88.1505 37.3942 89.3025 37.3942C90.3692 37.3942 91.2598 37.7409 91.9745 38.4342C92.6998 39.1169 93.0625 40.1569 93.0625 41.5542V41.9862H86.7585C86.7905 42.9462 87.0305 43.6822 87.4785 44.1942C87.9372 44.6956 88.5932 44.9462 89.4465 44.9462C90.7585 44.9462 91.4998 44.4609 91.6705 43.4902H92.9985C92.8598 44.3116 92.4705 44.9462 91.8305 45.3942C91.1905 45.8316 90.3905 46.0503 89.4305 46.0503ZM86.8065 40.9142H91.7025C91.5852 39.3036 90.7852 38.4982 89.3025 38.4982C88.6305 38.4982 88.0758 38.7169 87.6385 39.1542C87.2012 39.5809 86.9238 40.1676 86.8065 40.9142ZM95.2003 45.9062V37.5382H96.5283V39.0422C96.8163 38.5196 97.1683 38.1196 97.5843 37.8422C98.0109 37.5649 98.5763 37.4156 99.2803 37.3942V38.6422C98.3629 38.6849 97.6749 38.8982 97.2163 39.2822C96.7576 39.6662 96.5283 40.3436 96.5283 41.3142V45.9062H95.2003ZM105.746 45.9062V34.4662H107.682L111.218 43.3782L114.642 34.4662H116.562V45.9062H115.17V36.2742L111.378 45.9062H110.946L107.026 36.2742V45.9062H105.746ZM122.941 44.9462C123.773 44.9462 124.435 44.6582 124.925 44.0822C125.427 43.5062 125.677 42.7436 125.677 41.7943V41.6823C125.677 40.7116 125.427 39.9382 124.925 39.3622C124.435 38.7862 123.773 38.4982 122.941 38.4982C122.099 38.4982 121.432 38.7862 120.941 39.3622C120.451 39.9382 120.205 40.7062 120.205 41.6662V41.7943C120.205 42.7542 120.451 43.5222 120.941 44.0982C121.432 44.6636 122.099 44.9462 122.941 44.9462ZM122.925 46.0503C121.741 46.0503 120.76 45.6503 119.981 44.8503C119.213 44.0396 118.829 43.0209 118.829 41.7943V41.6662C118.829 40.4182 119.213 39.3942 119.981 38.5942C120.76 37.7942 121.747 37.3942 122.941 37.3942C124.136 37.3942 125.117 37.7942 125.885 38.5942C126.664 39.3836 127.053 40.4022 127.053 41.6502V41.7782C127.053 43.0369 126.664 44.0662 125.885 44.8662C125.107 45.6556 124.12 46.0503 122.925 46.0503ZM129.21 45.9062V37.5382H130.538V38.8662C130.74 38.4396 131.076 38.0876 131.546 37.8102C132.015 37.5329 132.575 37.3942 133.226 37.3942C134.143 37.3942 134.863 37.6662 135.386 38.2102C135.908 38.7542 136.17 39.6076 136.17 40.7702V45.9062H134.842V40.6742C134.842 39.9382 134.682 39.3996 134.362 39.0582C134.042 38.7169 133.546 38.5462 132.874 38.5462C132.223 38.5462 131.668 38.7489 131.21 39.1542C130.762 39.5596 130.538 40.1196 130.538 40.8342V45.9062H129.21ZM141.416 46.0183C140.68 46.0183 140.12 45.8209 139.736 45.4262C139.352 45.0316 139.16 44.4929 139.16 43.8102V38.6582H137.96V37.5382H139.16V35.6342H140.488V37.5382H142.44V38.6582H140.488V43.6822C140.488 44.4929 140.835 44.8982 141.528 44.8982C141.912 44.8982 142.253 44.8396 142.552 44.7222V45.8422C142.221 45.9596 141.843 46.0183 141.416 46.0183ZM144.66 45.9062V33.5382H145.988V38.8662C146.19 38.4396 146.526 38.0876 146.996 37.8102C147.465 37.5329 148.025 37.3942 148.676 37.3942C149.593 37.3942 150.313 37.6662 150.836 38.2102C151.358 38.7542 151.62 39.6076 151.62 40.7702V45.9062H150.292V40.6742C150.292 39.9382 150.132 39.3996 149.812 39.0582C149.492 38.7169 148.996 38.5462 148.324 38.5462C147.673 38.5462 147.118 38.7489 146.66 39.1542C146.212 39.5596 145.988 40.1196 145.988 40.8342V45.9062H144.66Z" fill="#374754"/>
</g>
</g>
</g>
<defs>
<clipPath id="clip0_67_6665">
<rect width="153" height="61" fill="white" transform="translate(0.5 0.90625)"/>
</clipPath>
<clipPath id="clip1_67_6665">
<rect width="75" height="104" fill="white" transform="translate(0.5 -20.5938)"/>
</clipPath>
<clipPath id="clip2_67_6665">
<rect width="78" height="51" fill="white" transform="translate(75.5 0.90625)"/>
</clipPath>
<clipPath id="clip3_67_6665">
<rect width="13" height="28" fill="white" transform="translate(75.5 0.90625)"/>
</clipPath>
<clipPath id="clip4_67_6665">
<rect width="78" height="23" fill="white" transform="translate(75.5 28.9062)"/>
</clipPath>
</defs>
</svg>
